# xmcd CD database file
#
# Track frame offsets:
#	187
#	21862
#	39750
#	57487
#
# Disc length: 1055 seconds
#
# Revision: 1
# Processed by: cddbd v1.5PL3 Copyright (c) Steve Scherf et al.
# Submitted via: CDex 1.51
#
DISCID=29041d04
DTITLE=パイレーツ - 渚のシンデレラ
DYEAR=1998
DGENRE=JPop
TTITLE0=渚のシンデレラ
TTITLE1=CALL ME
TTITLE2=電気でGO!
TTITLE3=渚のシンデレラ (オリジナル・カラオケ)
EXTD=YEAR: 1998
EXTT0=
EXTT1=
EXTT2=
EXTT3=
PLAYORDER=
